<svg height="512" viewBox="0 0 512 512" width="512" xmlns="http://www.w3.org/2000/svg"><g id="Filled_outline" data-name="Filled outline"><path d="m440 208-48 64h32a113.324 113.324 0 0 1 -94.694 111.782l-30.676 5.118a16 16 0 0 1 -18.63-15.787v-225.77a64 64 0 1 0 -48 0v225.77a16 16 0 0 1 -18.63 15.787l-30.676-5.113a113.324 113.324 0 0 1 -94.694-111.787h32l-48-64-48 64h32a169.692 169.692 0 0 0 123.075 163.164l.072.021a118.147 118.147 0 0 1 68.853 52.815h16a118.147 118.147 0 0 1 68.853-52.815l.072-.021a169.692 169.692 0 0 0 123.075-163.164h32zm-184-152a32 32 0 1 1 -32 32 32 32 0 0 1 32-32z" fill="#677b92"/><rect fill="#677b92" height="32" rx="16" width="128" x="192" y="168"/><path d="m232 200h48v16h-48z" fill="#3d5671"/><path d="m232 360h48v16h-48z" fill="#3d5671"/><path d="m346.77 379.43a112.844 112.844 0 0 1 -17.46 4.35l-14.46 2.41a49.267 49.267 0 0 0 -7.07-10.53 48.219 48.219 0 0 0 -12.47-10.19c-1.04-.59-2.1-1.15-3.19-1.66a38.382 38.382 0 0 0 -6.45-2.37 43.829 43.829 0 0 0 -11.3-1.44h-57.35a81.393 81.393 0 0 1 -26.03-4.25 80.454 80.454 0 0 1 -14.75-6.68 81.286 81.286 0 0 1 -23.34-20.24 79.991 79.991 0 0 1 -8.6-13.57 78.193 78.193 0 0 1 -7.89-27.26c-.25-2.37-.39-4.78-.41-7.21a82.438 82.438 0 0 1 .39-8.79 79.83 79.83 0 0 1 16.46-41.05 80 80 0 0 1 38.15-26.95 79.535 79.535 0 0 1 25-4h16v32h-15.19a49.585 49.585 0 0 0 -6.93.49 49.188 49.188 0 0 0 -27.63 13.67 47.909 47.909 0 0 0 -9.46 13.12 46.924 46.924 0 0 0 -4.12 12.72 48.169 48.169 0 0 0 0 16 47.472 47.472 0 0 0 4.02 12.69 48.257 48.257 0 0 0 20.88 21.73 47.241 47.241 0 0 0 15.75 5.11h.01a47.285 47.285 0 0 0 6.67.47h56.25a82.365 82.365 0 0 1 13.42 1.09 77.315 77.315 0 0 1 31.01 12.24c.62.43 1.25.87 1.86 1.31a81.1 81.1 0 0 1 28.23 36.79z" fill="#f5bb60"/><path d="m332.93 435.16-.08.02c-.03.01-.07.02-.1.03h-.01a113.632 113.632 0 0 0 -12.74 4.47v48.32h32v-59.54a168.575 168.575 0 0 1 -19.07 6.7z" fill="#f5bb60"/><path d="m376 151.21a82.438 82.438 0 0 1 -.39 8.79 79.675 79.675 0 0 1 -16.17 40.68 80.405 80.405 0 0 1 -23.55 20.65 79.665 79.665 0 0 1 -39.89 10.67h-16v-32h15.19a47.885 47.885 0 0 0 6.81-.48h.01a49.11 49.11 0 0 0 27.53-13.47 47.971 47.971 0 0 0 9.57-13.13 46.752 46.752 0 0 0 4.22-12.92 48.169 48.169 0 0 0 0-16 47.6 47.6 0 0 0 -4.13-12.92 48.318 48.318 0 0 0 -21.1-21.68 47.39 47.39 0 0 0 -15.93-5h-.01a46.412 46.412 0 0 0 -6.16-.4h-24a16 16 0 1 1 0-32h22.98c.34 0 .68 0 1.02.01a81.008 81.008 0 0 1 25.2 4.31 80.161 80.161 0 0 1 14.77 6.73 81.15 81.15 0 0 1 23.09 20.07 80.094 80.094 0 0 1 8.62 13.57 78.271 78.271 0 0 1 7.91 27.31c.25 2.37.39 4.78.41 7.21z" fill="#f5bb60"/><g fill="#edb04e"><path d="m376 151.21a82.438 82.438 0 0 1 -.39 8.79h-32.28a48.169 48.169 0 0 0 0-16h32.26c.25 2.37.39 4.78.41 7.21z"/><path d="m335.97 83.05-17.87 26.35a47.39 47.39 0 0 0 -15.93-5l19.03-28.08a80.161 80.161 0 0 1 14.77 6.73z"/><path d="m367.68 116.69-28.48 14.39a48.211 48.211 0 0 0 -9.43-13.16l29.29-14.8a80.094 80.094 0 0 1 8.62 13.57z"/><path d="m335.89 221.33a79.238 79.238 0 0 1 -14.81 6.64l-19.07-28.45a49.062 49.062 0 0 0 15.87-5.05z"/><path d="m367.92 187.02a79.521 79.521 0 0 1 -8.48 13.66l-29.9-14.63a47.971 47.971 0 0 0 9.57-13.13z"/><path d="m296 72.01v31.99h-16v-32h14.98c.34 0 .68 0 1.02.01z"/><path d="m168.01 279.07a47.865 47.865 0 0 0 .66 8.93h-32.26c-.25-2.37-.39-4.78-.41-7.21a82.438 82.438 0 0 1 .39-8.79h32.28a48.253 48.253 0 0 0 -.66 7.07z"/><path d="m209.32 327.53-18.33 28.22a80.454 80.454 0 0 1 -14.75-6.68l17.33-26.65a47.241 47.241 0 0 0 15.75 5.11z"/><path d="m182.03 313.88-29.13 14.95a79.991 79.991 0 0 1 -8.6-13.57l28.39-14.57a48.207 48.207 0 0 0 9.34 13.19z"/><path d="m209.88 232.49a48.88 48.88 0 0 0 -15.83 5.08l-17.86-26.95a79.818 79.818 0 0 1 14.81-6.62z"/><path d="m182.25 246.16-29.4-15.21a78.984 78.984 0 0 0 -8.55 13.6l28.49 14.73z"/><path d="m224 328h16v32h-16z"/><path d="m285.67 329.09v32.35a43.829 43.829 0 0 0 -11.3-1.44h-4.7v-32h2.58a82.365 82.365 0 0 1 13.42 1.09z"/><path d="m330.54 353.28-22.76 22.38a48.219 48.219 0 0 0 -12.47-10.19l23.23-22.83a80.855 80.855 0 0 1 12 10.64z"/><path d="m352 455.67v16.49l-32-8v-16.49z"/></g><path d="m24 280h24.175a177.7 177.7 0 0 0 128.7 162.853l.179.048a109.8 109.8 0 0 1 64.088 49.215 8 8 0 0 0 6.858 3.884h16a8 8 0 0 0 6.86-3.884 109.886 109.886 0 0 1 41.14-39.709v35.593a8 8 0 0 0 8 8h32a8 8 0 0 0 8-8v-54.285a176.42 176.42 0 0 0 66.559-52.615l-12.629-9.823a160.618 160.618 0 0 1 -83.076 56.154l-.2.055a126.164 126.164 0 0 0 -71.088 52.514h-7.132a125.714 125.714 0 0 0 -71.085-52.512l-.18-.049a161.688 161.688 0 0 1 -117.169-155.439 8 8 0 0 0 -8-8h-16l32-42.667 32 42.667h-16a8 8 0 0 0 -8 8 121.315 121.315 0 0 0 101.376 119.671l30.675 5.11a24 24 0 0 0 27.949-23.671v-5.11h32v5.11a23.979 23.979 0 0 0 27.944 23.671l30.68-5.11a121.329 121.329 0 0 0 101.376-119.671 8 8 0 0 0 -8-8h-16l32-42.667 32 42.667h-16a8 8 0 0 0 -8 8 161.21 161.21 0 0 1 -26.516 88.721l13.374 8.782a177.09 177.09 0 0 0 28.964-89.503h24.178a8 8 0 0 0 6.4-12.8l-48-64a8 8 0 0 0 -12.8 0l-48 64a8 8 0 0 0 6.4 12.8h23.7a105.26 105.26 0 0 1 -64.641 89.255 88.913 88.913 0 0 0 -63.059-48.174v-113.081s18.386-.091 19.543-.263l8.876 13.313a72.024 72.024 0 0 1 -15.922 2.811l.987 15.97a87.955 87.955 0 0 0 82.516-88.698c-.363-37.456-24.714-69.466-58.466-81.757a72.249 72.249 0 0 0 -66.108-53.3 71.433 71.433 0 0 0 -53.2 19.9l11.065 11.558a55.546 55.546 0 0 1 41.393-15.477c20.939.976 39.587 14.117 48.221 32.737a89.82 89.82 0 0 0 -11.925-.794h-7a40 40 0 1 0 0 48h8.02a40.138 40.138 0 0 1 9.975 1.252 56 56 0 0 1 -28.975 26.673 8 8 0 0 0 -5 7.415v12.66h-32v-12.66a8 8 0 0 0 -5-7.415 56.024 56.024 0 0 1 -25.74-82.783l-13.344-8.829a72.03 72.03 0 0 0 28.084 104.198v7.489h-16a23.984 23.984 0 0 0 -20.361 36.685 88.206 88.206 0 0 0 -59.634 84.182c.465 48.045 40.395 87.133 89.015 87.133h6.98v5.11a8 8 0 0 1 -9.315 7.89l-30.68-5.11a105.31 105.31 0 0 1 -87.7-95.89h23.695a8 8 0 0 0 6.4-12.8l-48-64a8 8 0 0 0 -12.8 0l-48 64a8 8 0 0 0 6.4 12.8zm304 165.174c2.282-.82 4.585-1.594 6.931-2.268l.2-.053q4.488-1.283 8.872-2.791v13.692l-16-4zm0 21.072 16 4v9.754h-16zm-64.018-355.628a24 24 0 1 1 0-45.236 24 24 0 0 0 0 45.236zm16.018-14.618h-8a8 8 0 0 1 0-16h8zm-8 256h-32v-16h32zm0-32h-32v-112h32zm25.311 61a8 8 0 0 1 -9.311-7.89v-2.381a40.156 40.156 0 0 1 13.231 9.618zm27.289-22.289a72.678 72.678 0 0 1 11.076 15.578c-2.536.62-5.094 1.168-7.683 1.6l-8.955 1.491a57.332 57.332 0 0 0 -5.662-7.445zm-12.14-10.484-11.377 11.373a55.011 55.011 0 0 0 -13.083-5.926v-16.266a71.738 71.738 0 0 1 24.46 10.819zm18.956-133.527-9.07-13.6a57.523 57.523 0 0 0 14.845-11.557l14.985 7.492a72.116 72.116 0 0 1 -20.76 17.665zm29.357-31.259-14.433-7.216a54.679 54.679 0 0 0 5.06-16.225h16.139a71.627 71.627 0 0 1 -6.766 23.442zm-.121-62.824a70.481 70.481 0 0 1 6.9 23.382h-16.128a55.27 55.27 0 0 0 -4.964-16.289zm-29.426-31.032a73.584 73.584 0 0 1 20.7 17.506l-14.52 7.257c-.475-.521-.951-1.043-1.448-1.55a56.353 56.353 0 0 0 -13.448-10.139zm-35.226 6.415v-15.974a73.3 73.3 0 0 1 20.285 3.126l-9.285 13.926a56.507 56.507 0 0 0 -11-1.078zm-8 56.508a71.989 71.989 0 0 0 32.35-32.216 40.757 40.757 0 0 1 4.189 3.708 39.708 39.708 0 0 1 11.454 28.772 39.2 39.2 0 0 1 -9.039 24.216 24.041 24.041 0 0 0 -22.954-16.988h-16zm-80 23.492h96a7.989 7.989 0 0 1 6.06 13.208 40.994 40.994 0 0 1 -14.866 2.792h-87.194a8 8 0 0 1 0-16zm8 32h8v16h-7.194a56.92 56.92 0 0 0 -11.709 1.223l-9.519-14.278a72.075 72.075 0 0 1 20.422-2.945zm.806 32h7.194v80h-8a40.054 40.054 0 0 1 -39.993-40.776c.411-21.624 18.713-39.224 40.799-39.224zm-51.94-10.635a72.584 72.584 0 0 1 15.734-12.045l9.055 13.583a57.523 57.523 0 0 0 -14.845 11.557l-14.956-7.478a73.576 73.576 0 0 1 5.012-5.617zm-13.634 19.195 14.428 7.214a54.679 54.679 0 0 0 -5.06 16.226h-16.141a71.177 71.177 0 0 1 6.773-23.44zm.116 62.822a70.456 70.456 0 0 1 -6.898-23.382h16.126a55.27 55.27 0 0 0 4.964 16.289zm29.427 31.033a73.574 73.574 0 0 1 -20.7-17.506l14.52-7.257c.476.521.951 1.043 1.448 1.55a56.373 56.373 0 0 0 13.448 10.139zm36.245 9.585a73.338 73.338 0 0 1 -21.305-3.152l9.285-13.926a56.489 56.489 0 0 0 11 1.078h8v16z"/></g></svg>