<svg id="Capa_1" enable-background="new 0 0 512 512" height="512" viewBox="0 0 512 512" width="512" xmlns="http://www.w3.org/2000/svg"><g><path d="m256 504.498c-16.832 0-30.174-14.202-29.124-31.002l13.593-217.436-13.594-217.557c-1.05-16.799 12.292-31.001 29.124-31.001h.002c16.832 0 30.174 14.202 29.124 31.001l-13.594 217.557 13.593 217.436c1.05 16.8-12.292 31.002-29.124 31.002z" fill="#d1a08f"/><path d="m266 502.74c-3.11 1.14-6.48 1.76-10 1.76-16.83 0-30.17-14.2-29.12-31l13.59-217.44-13.6-217.56c-1.04-16.8 12.3-31 29.13-31 3.52 0 6.89.62 10 1.76-11.78 4.29-19.95 15.95-19.13 29.24l13.6 217.56-13.59 217.44c-.83 13.29 7.34 24.95 19.12 29.24z" fill="#c68d7a"/><path d="m431.715 431.715c-11.902 11.902-31.379 11.294-42.515-1.328l-144.14-163.362-163.448-144.224c-12.621-11.137-13.229-30.613-1.327-42.515l.001-.001c11.902-11.902 31.378-11.294 42.515 1.327l144.224 163.448 163.362 144.139c12.622 11.137 13.23 30.613 1.328 42.516z" fill="#d1a08f"/><path d="m421.08 438.49c-10.9 3.99-23.66 1.21-31.88-8.1l-144.14-163.37-163.45-144.22c-12.62-11.14-13.23-30.61-1.33-42.51l.01-.01c8.32-8.32 20.34-10.53 30.63-6.77-3.88 1.4-7.51 3.65-10.63 6.77l-.01.01c-11.9 11.9-11.29 31.37 1.33 42.51l163.45 144.22 144.14 163.37c3.35 3.8 7.45 6.5 11.88 8.1z" fill="#c68d7a"/><path d="m504.498 256c0 16.832-14.202 30.174-31.002 29.124l-217.436-13.593-217.557 13.594c-16.799 1.05-31.001-12.292-31.001-29.124v-.002c0-16.832 14.202-30.174 31.001-29.124l217.557 13.594 217.436-13.593c16.8-1.051 31.002 12.291 31.002 29.124z" fill="#d1a08f"/><path d="m497.38 275.1c-5.74 6.62-14.4 10.61-23.88 10.02l-217.44-13.59-217.56 13.59c-16.8 1.05-31-12.29-31-29.12 0-15.52 12.07-28.08 27.13-29.11-4.44 5.11-7.13 11.78-7.13 19.11 0 16.83 14.2 30.17 31 29.12l217.56-13.59 217.44 13.59c1.31.08 2.61.08 3.88-.02z" fill="#c68d7a"/><path d="m431.715 80.285c11.902 11.902 11.294 31.379-1.328 42.515l-163.362 144.139-144.224 163.449c-11.137 12.621-30.613 13.229-42.515 1.327l-.001-.001c-11.902-11.902-11.294-31.378 1.327-42.515l163.449-144.224 144.138-163.362c11.137-12.622 30.613-13.23 42.516-1.328z" fill="#d1a08f"/><path d="m421.08 73.51c-4.43 1.6-8.53 4.3-11.88 8.1l-144.14 163.36-163.45 144.23c-12.62 11.14-13.23 30.61-1.33 42.51l.01.01c3.12 3.12 6.75 5.37 10.63 6.77-10.29 3.76-22.31 1.55-30.63-6.77l-.01-.01c-11.9-11.9-11.29-31.37 1.33-42.51l163.45-144.23 144.14-163.36c8.22-9.31 20.98-12.09 31.88-8.1z" fill="#c68d7a"/><path d="m256 85.158c-94.354 0-170.842 76.489-170.842 170.842s76.488 170.842 170.842 170.842 170.842-76.488 170.842-170.842-76.488-170.842-170.842-170.842zm.412 294.678c-68.393 0-123.837-55.443-123.837-123.836s55.444-123.836 123.837-123.836 123.837 55.443 123.837 123.836-55.444 123.836-123.837 123.836z" fill="#ffe177"/><path d="m281.41 132.16c-4.22 0-8.39.21-12.5.62 62.53 6.27 111.34 59.05 111.34 123.22s-48.81 116.95-111.34 123.22c4.11.41 8.28.62 12.5.62 68.4 0 123.84-55.45 123.84-123.84s-55.44-123.84-123.84-123.84zm-171.25 123.84c0-90.15 69.83-163.99 158.34-170.38-4.13-.31-8.3-.46-12.5-.46-94.35 0-170.84 76.49-170.84 170.84s76.49 170.84 170.84 170.84c4.2 0 8.37-.15 12.5-.46-88.51-6.39-158.34-80.23-158.34-170.38z" fill="#ffd15b"/><circle cx="256" cy="256" fill="#f7ba4d" r="62.125"/><path d="m281 312.88c-7.65 3.37-16.1 5.24-25 5.24-34.31 0-62.12-27.81-62.12-62.12s27.81-62.12 62.12-62.12c8.9 0 17.35 1.87 25 5.24-12.22 5.37-22.37 14.57-28.95 26.07 0 0 0 0-.01 0-5.19 9.08-8.16 19.6-8.16 30.81s2.97 21.73 8.16 30.81h.01c6.58 11.5 16.73 20.7 28.95 26.07z" fill="#ffab15"/><circle cx="256" cy="256" fill="#ffe177" r="31.062"/><path d="m243.88 256c0 11.21 2.97 21.73 8.16 30.81-15.29-1.94-27.1-14.99-27.1-30.81s11.81-28.87 27.1-30.81c-5.19 9.08-8.16 19.6-8.16 30.81z" fill="#ffd15b"/><g><path d="m475.35 219.32c-.775 0-44.255 2.695-44.255 2.695-1.458-7.548-3.396-14.996-5.828-22.303-1.307-3.931-5.552-6.056-9.484-4.748-3.93 1.308-6.056 5.554-4.748 9.484 41.163 123.728-79.619 246.735-204.224 207.351-3.953-1.247-8.163.941-9.412 4.891-1.248 3.95.941 8.164 4.891 9.412 6.475 2.047 13.06 3.715 19.726 5.002l-2.621 41.928c-1.301 20.822 15.741 38.968 36.605 38.968 20.226 0 36.68-16.441 36.68-36.65 0-.775-2.696-44.272-2.696-44.272 23.958-4.641 46.226-14.082 65.744-27.296l27.85 31.571c13.716 15.54 38.805 16.303 53.437 1.661 14.732-14.734 14.026-39.591-1.662-53.438l-31.57-27.848c13.214-19.519 22.655-41.786 27.296-65.745 0 0 43.463 2.692 44.216 2.692 19.959.001 36.705-16.635 36.705-36.675 0-20.226-16.441-36.68-36.65-36.68zm-197.714 254.663c.723 11.313-10.447 23.017-21.636 23.017-13.854-1.437-21.066-9.114-21.635-23.032l2.541-40.646c12.73 1.36 25.459 1.358 38.188-.005zm147.791-79.16c4.66 4.113 7.333 10.038 7.333 16.257 0 5.787-2.256 11.229-6.355 15.329-4.272 4.277-9.943 6.523-15.996 6.344-6.045-.188-11.58-2.789-15.584-7.325l-27.003-30.611c9.929-8.014 18.982-17.067 26.996-26.996zm48.541-117.188-40.652-2.541c1.364-12.729 1.365-25.459.005-38.189 0 0 41.579-2.552 42.028-2.585 25.984-1.882 29.149 43.317-1.381 43.315z"/><path d="m208.35 99.724c72.344-22.083 152.921 10.378 190.019 76.151 3.014 3.826 6.419 4.775 10.217 2.848 3.607-2.034 4.883-6.608 2.848-10.217-2.376-4.214-4.93-8.292-7.612-12.259l31.532-27.824c15.358-13.556 15.975-38.966 1.661-53.446-14.756-14.754-39.629-13.971-53.438 1.672l-27.847 31.56c-19.747-13.315-42.095-22.64-65.738-27.249l2.625-41.996c1.289-20.82-15.754-38.964-36.617-38.964-20.231 0-36.69 16.445-36.69 36.66 0 .759 2.696 44.244 2.696 44.244-6.088 1.176-12.108 2.663-18.035 4.472-3.962 1.209-6.193 5.401-4.984 9.363s5.402 6.188 9.363 4.985zm186.473-13.151c10.155-9.37 20.618-9.764 31.389-1.182 7.905 8.384 8.118 23.927-.784 31.784l-30.546 26.954c-8.07-9.997-17.157-19.015-27.047-26.969zm-160.513-49.913c0-11.943 9.73-21.66 21.69-21.66 13.853 1.437 21.068 9.115 21.645 23.032l-2.542 40.673c-12.735-1.384-25.47-1.394-38.207-.028 0 0-2.586-41.568-2.586-42.017z"/><path d="m365.281 182.61c-19.329-36.686-69.832-57.946-108.869-57.946-71.392 0-131.336 59.792-131.336 131.336 0 71.429 59.869 131.336 131.336 131.336 76.338 0 131.337-59.803 131.337-131.336 0-25.803-8.037-52.053-22.468-73.39zm-8.301 131.815-35.468-31.289 47.282 2.958c-2.691 10.041-6.693 19.55-11.814 28.331zm-70.905 54.073-2.939-46.986 31.192 35.357c-8.765 5.052-18.248 8.989-28.253 11.629zm-30.075-57.874c-30.12 0-54.624-24.504-54.624-54.624s24.504-54.624 54.624-54.624 54.624 24.504 54.624 54.624-24.504 54.624-54.624 54.624zm-58.048 45.922 30.912-35.026-2.925 46.758c-9.915-2.694-19.307-6.666-27.987-11.732zm-53.934-70.502 46.449-2.907-34.906 30.807c-4.996-8.661-8.901-18.025-11.543-27.9zm-2.947-45.253 46.417 2.904c-1.481 8.2-1.481 16.4-.002 24.6l-46.416 2.905c-2.32-7.7-2.32-20.7.001-30.409zm14.491-42.737 34.904 30.798-46.446-2.906c2.643-9.872 6.547-19.233 11.542-27.892zm70.377-54.332 2.924 46.744-30.899-35.018c8.677-5.064 18.065-9.034 27.975-11.726zm88.388 11.409-31.19 35.348 2.939-46.977c10.004 2.64 19.486 6.577 28.251 11.629zm54.467 70.775-47.282 2.958 35.468-31.289c5.121 8.781 9.123 18.29 11.814 28.331zm-44.279 42.389c1.479-8.196 1.479-16.393 0-24.589l47.234-2.955c1.333 10.166 1.333 20.333 0 30.499zm24.011-83.265-35.404 31.233c-4.725-6.771-10.618-12.664-17.389-17.388l31.187-35.344c8.103 6.194 15.372 13.427 21.606 21.499zm-77.298-44.427-2.933 46.882c-8.196-1.479-16.393-1.479-24.589 0l-2.925-46.767c10.146-1.366 20.295-1.404 30.447-.115zm-85.808 23.301 30.854 34.967c-6.776 4.726-12.672 10.622-17.399 17.397l-34.91-30.803c6.184-8.086 13.401-15.339 21.455-21.561zm-21.455 162.63 34.906-30.808c4.726 6.775 10.621 12.671 17.396 17.398l-30.857 34.964c-8.05-6.221-15.264-13.471-21.445-21.554zm76.815 44.748 2.925-46.767c8.196 1.479 16.393 1.479 24.589 0l2.932 46.882c-10.151 1.289-20.3 1.251-30.446-.115zm86.14-22.813-31.183-35.347c6.77-4.724 12.661-10.615 17.385-17.385l35.404 31.233c-6.234 8.072-13.502 15.304-21.606 21.499z"/><path d="m177.997 399.543c-110.638-60.239-110.167-228.515 1.435-287.861 3.657-1.945 5.045-6.486 3.101-10.144-1.945-3.656-6.485-5.047-10.144-3.101-5.596 2.976-10.985 6.225-16.163 9.718l-27.803-31.508c-13.813-15.648-38.689-16.418-53.446-1.661-14.753 14.755-13.968 39.632 1.672 53.438l31.502 27.797c-13.316 19.727-22.634 42.063-27.218 65.786l-41.964-2.622c-20.826-1.29-38.969 15.744-38.969 36.615 0 20.407 18.635 37.917 38.968 36.605l41.974-2.624c4.593 23.693 13.916 46.034 27.231 65.77l-31.526 27.825c-15.639 13.806-16.423 38.682-1.671 53.437 14.81 14.638 39.481 14.161 53.447-1.662l27.812-31.521c4.693 3.168 9.551 6.144 14.587 8.886 3.804 1.87 7.195.87 10.174-3 1.982-3.638.639-8.193-2.999-10.173zm-91.424-282.366c-9.443-10.248-9.77-20.779-.979-31.593 10.811-8.78 21.338-8.45 31.582.988l26.944 30.536c-10.02 8.063-19.078 17.113-27.038 26.99zm-49.923 160.503c-11.938 0-21.65-9.726-21.65-21.68 1.436-13.858 9.114-21.072 23.032-21.645l40.655 2.541c-1.371 12.733-1.369 25.465.006 38.197 0 0-41.592 2.587-42.043 2.587zm80.527 147.747c-10.245 9.441-20.136 10.714-31.581.982-9.596-8.159-7.442-24.152.978-31.586l30.541-26.956c7.959 9.883 17 18.949 27.013 27.016z"/><path d="m256 217.438c-21.264 0-38.563 17.299-38.563 38.563s17.299 38.563 38.563 38.563 38.563-17.299 38.563-38.563-17.299-38.563-38.563-38.563zm0 62.125c-12.992 0-23.563-10.57-23.563-23.563s10.57-23.563 23.563-23.563 23.563 10.57 23.563 23.563-10.571 23.563-23.563 23.563z"/></g></g></svg>