<svg id="Capa_1" enable-background="new 0 0 512 512" height="512" viewBox="0 0 512 512" width="512" xmlns="http://www.w3.org/2000/svg"><g><circle cx="256" cy="256" fill="#fa5e97" r="256"/><path d="m314.504 173.36 79.181-79.181c3.626-3.626 3.253-9.602-.78-12.769-37.708-29.611-85.241-47.277-136.904-47.277-122.256 0-221.868 99.612-221.868 221.868 0 51.663 17.666 99.196 47.277 136.904 3.167 4.033 9.143 4.406 12.769.78l69.64-69.64z" fill="rgb(159, 196, 226)"/><path d="m200.335 335.8-82.021 82.02c-3.626 3.626-3.253 9.602.78 12.769 37.708 29.612 85.241 47.277 136.904 47.277 122.256.001 221.869-99.612 221.868-221.868 0-51.663-17.666-99.196-47.277-136.904-3.167-4.033-9.143-4.406-12.769-.78l-72.58 72.58z" fill="rgb(159, 196, 226)"/><path d="m256 0c-3.972 0-7.92.104-11.848.283 135.884 6.191 244.153 118.304 244.153 255.717s-108.269 249.526-244.152 255.717c3.927.179 7.875.283 11.847.283 141.385 0 256-114.615 256-256s-114.615-256-256-256z" fill="#d94f88"/><path d="m357.38 153.62c-9.71.38-18.024 6.172-22.028 14.441-.226.467-.689.772-1.208.772-.742 0-1.344-.602-1.344-1.344v-38.927c0-14.194-11.612-26.272-25.806-26.161-10.368.082-19.263 6.329-23.211 15.254-.184.415-.586.688-1.039.688-.631 0-1.143-.512-1.143-1.143v-5.69c0-14.353-11.745-26.444-26.095-26.172-13.91.264-25.105 11.622-25.105 25.596v23.805c0 .578-.469 1.047-1.047 1.047-.421 0-.794-.257-.957-.646-3.867-9.182-12.93-15.638-23.51-15.672-14.266-.047-25.686 11.906-25.686 26.171v74.023c0 .624-.506 1.13-1.13 1.13-.449 0-.847-.271-1.028-.682-3.973-9.038-13.014-15.344-23.528-15.309-14.2.047-25.514 11.977-25.514 26.178v93.289c0 56.554 45.846 102.4 102.4 102.4h51.2c56.554 0 102.4-45.846 102.4-102.4v-144.49c-.001-14.629-12.004-26.731-26.621-26.158z" fill="#f1b0a2"/><g><path d="m357.38 153.62c-3.932.154-7.628 1.208-10.909 2.942 8.221 4.396 13.834 13.213 13.834 23.214v144.49c0 56.554-45.846 102.4-102.4 102.4h23.695c56.554 0 102.4-45.846 102.4-102.4v-144.49c0-14.627-12.003-26.729-26.62-26.156z" fill="#eb9c8d"/></g><g fill="#eb9c8d"><path d="m247.467 357.593c4.268 0 7.726-3.459 7.726-7.726 0-38.832-29.071-71.305-67.62-75.535-.362-.04-.647-.386-.647-.788v-146.587c-4.773 4.784-7.727 11.432-7.727 18.681v74.024c0 .624-.506 1.13-1.13 1.13-.45 0-.847-.271-1.028-.682-1.33-3.025-3.238-5.733-5.568-8.011v61.445c0 8.304 6.196 15.245 14.413 16.148 30.701 3.369 53.853 29.238 53.853 60.175.001 4.267 3.46 7.726 7.728 7.726z"/><g><path d="m238.127 247.467v-154.852c-4.764 4.649-7.727 11.136-7.727 18.318v23.805c0 .578-.469 1.047-1.047 1.047-.421 0-.794-.257-.957-.646-1.335-3.169-3.3-6.002-5.722-8.37v120.697c0 4.268 3.459 7.726 7.726 7.726 4.268.001 7.727-3.458 7.727-7.725z"/><path d="m289.326 247.467v-137.768c-2.316 2.264-4.215 4.953-5.543 7.956-.184.415-.586.688-1.039.688-.632 0-1.143-.512-1.143-1.143v-5.69c0-7.206-2.962-13.841-7.727-18.629v154.585c0 4.268 3.459 7.726 7.726 7.726 4.267.001 7.726-3.458 7.726-7.725z"/><path d="m335.352 168.061c-.226.467-.689.772-1.208.772-.743 0-1.344-.602-1.344-1.345v-38.926c0-7.17-2.965-13.796-7.727-18.588v146.026c0 4.268 3.459 7.726 7.726 7.726s7.726-3.459 7.726-7.726v-95.107c-2.11 2.063-3.872 4.481-5.173 7.168z"/></g></g></g></svg>